<svg width="391" height="391" viewBox="0 0 391 391" fill="none" xmlns="http://www.w3.org/2000/svg">
<path d="M48.875 162.917H342.125M114.042 244.375H114.205M179.208 244.375H211.792M48.875 130.333C48.875 117.371 54.0243 104.939 63.1902 95.7735C72.356 86.6076 84.7875 81.4583 97.75 81.4583H293.25C306.212 81.4583 318.644 86.6076 327.81 95.7735C336.976 104.939 342.125 117.371 342.125 130.333V260.667C342.125 273.629 336.976 286.061 327.81 295.227C318.644 304.392 306.212 309.542 293.25 309.542H97.75C84.7875 309.542 72.356 304.392 63.1902 295.227C54.0243 286.061 48.875 273.629 48.875 260.667V130.333Z" stroke="#F8F387" stroke-opacity="0.72" stroke-width="17.6493" stroke-linecap="round" stroke-linejoin="round"/>
</svg>
