<svg width="622" height="622" viewBox="0 0 622 622" fill="none" xmlns="http://www.w3.org/2000/svg">
<path d="M342.1 521.08V590.9H279.9V524.253C226.657 521.143 184.547 505.935 148.005 468.366L201.435 414.252C228.15 441.309 264.35 450.328 303.505 450.328C352.176 450.328 378.3 431.699 378.3 397.396C378.3 382.374 374.164 369.748 365.238 361.32C356.935 353.514 347.449 349.284 327.856 346.298L276.79 339.083C240.59 333.672 213.906 322.258 194.873 303.598C174.72 283.165 164.612 255.518 164.612 219.41C164.612 152.39 207.593 103.003 279.9 91.9005V31.1H342.1V91.1852C385.08 95.6947 418.762 110.467 448.307 139.421L396.09 191.731C369.375 165.856 337.342 162.28 309.414 162.28C265.501 162.28 244.135 186.911 244.135 216.394C244.135 227.217 247.712 238.661 256.606 247.058C264.91 254.896 278.563 261.489 295.792 263.883L345.614 271.099C384.209 276.51 408.53 287.333 426.35 304.158C448.929 325.804 459.005 357.09 459.005 394.97C459.005 464.945 410.271 508.858 342.1 521.08Z" fill="#F8F387" fill-opacity="0.72"/>
</svg>
