<svg width="48" height="19" viewBox="0 0 48 19" fill="none" xmlns="http://www.w3.org/2000/svg">
<path d="M16.333 0.915527L6.90918 18.1152H2.771L0 0.915527H3.72314L5.11475 11.9629C5.17985 12.557 5.23275 13.1266 5.27344 13.6719C5.32227 14.2171 5.35889 14.7298 5.3833 15.21C5.57048 14.7786 5.74137 14.3962 5.896 14.0625C6.05876 13.7207 6.1971 13.4237 6.31104 13.1714L12.5732 0.915527H16.333ZM21.0083 0L20.5078 2.52686H17.0776L17.5781 0H21.0083ZM20.0562 4.90723L17.4805 18.1152H14.0625L16.626 4.90723H20.0562ZM32.8003 14.0381C32.8003 15.4541 32.2754 16.5283 31.2256 17.2607C30.1839 17.9932 28.6621 18.3594 26.6602 18.3594C25.0244 18.3594 23.7345 18.0705 22.7905 17.4927C21.8465 16.9149 21.2077 16.0197 20.874 14.8071L23.938 14.3677C24.1089 14.978 24.4222 15.4175 24.8779 15.686C25.3337 15.9546 26.0091 16.0889 26.9043 16.0889C28.7109 16.0889 29.6143 15.5355 29.6143 14.4287C29.6143 14.0137 29.4474 13.6882 29.1138 13.4521C28.772 13.2324 28.0273 13.0005 26.8799 12.7563C25.9033 12.5366 25.1017 12.264 24.4751 11.9385C23.759 11.5641 23.2422 11.1165 22.9248 10.5957C22.6156 10.0667 22.4609 9.44417 22.4609 8.72803C22.4609 7.42594 22.9696 6.42904 23.9868 5.7373C25.0122 5.04557 26.473 4.69971 28.3691 4.69971C30.0456 4.69971 31.2948 4.98861 32.1167 5.56641C32.9386 6.13607 33.4473 7.01904 33.6426 8.21533L30.5786 8.56934C30.4403 8.00781 30.1717 7.60091 29.7729 7.34863C29.3742 7.09635 28.8289 6.97021 28.1372 6.97021C27.299 6.97021 26.6724 7.09229 26.2573 7.33643C25.8423 7.58057 25.6348 7.94678 25.6348 8.43506C25.6348 8.70361 25.7161 8.92741 25.8789 9.10645C26.0417 9.28548 26.2736 9.4401 26.5747 9.57031C26.8677 9.70052 27.592 9.8999 28.7476 10.1685C29.8543 10.4207 30.717 10.7503 31.3354 11.1572C31.8563 11.499 32.2306 11.91 32.4585 12.3901C32.6864 12.8621 32.8003 13.4115 32.8003 14.0381ZM45.3979 18.2373C44.5841 18.2373 43.9575 18.0664 43.5181 17.7246C43.0786 17.3828 42.8589 16.9312 42.8589 16.3696C42.8589 16.215 42.863 16.0726 42.8711 15.9424C42.8874 15.8122 42.9036 15.6942 42.9199 15.5884H42.8467C42.1631 16.6463 41.4876 17.3747 40.8203 17.7734C40.153 18.1641 39.3392 18.3594 38.3789 18.3594C37.2396 18.3594 36.3281 18.0216 35.6445 17.3462C34.9691 16.6626 34.6313 15.7878 34.6313 14.7217C34.6313 13.2161 35.1481 12.0809 36.1816 11.3159C37.2233 10.5428 38.9079 10.1359 41.2354 10.0952L43.5669 10.0586C43.7378 9.28548 43.8232 8.75244 43.8232 8.45947C43.8232 7.93864 43.693 7.54801 43.4326 7.2876C43.1803 7.02718 42.7938 6.89697 42.2729 6.89697C41.508 6.89697 40.9383 7.04753 40.564 7.34863C40.1896 7.6416 39.9333 8.06885 39.7949 8.63037L36.5845 8.25195C36.8612 7.08008 37.4837 6.18896 38.4521 5.57861C39.4287 4.96826 40.7227 4.66309 42.334 4.66309C44.0186 4.66309 45.2515 4.96012 46.0327 5.5542C46.8221 6.14827 47.2168 7.0516 47.2168 8.26416C47.2168 8.56527 47.1191 9.2041 46.9238 10.1807L46.0571 14.4897C45.992 14.8804 45.9595 15.1733 45.9595 15.3687C45.9595 15.7023 46.0734 15.918 46.3013 16.0156C46.5291 16.1133 46.7367 16.1621 46.9238 16.1621C47.1924 16.1621 47.4447 16.1336 47.6807 16.0767L47.5098 17.9688C47.168 18.099 46.8221 18.1763 46.4722 18.2007C46.1222 18.2251 45.7642 18.2373 45.3979 18.2373ZM38.1348 14.1479C38.1348 14.7176 38.2935 15.1652 38.6108 15.4907C38.9364 15.8081 39.3717 15.9668 39.917 15.9668C40.568 15.9668 41.1621 15.7227 41.6992 15.2344C41.984 14.9821 42.2282 14.6769 42.4316 14.3188C42.6432 13.9526 42.806 13.5457 42.9199 13.0981L43.1885 11.9751H41.2109C40.7308 11.9832 40.2995 12.0402 39.917 12.146C39.5345 12.2437 39.209 12.3861 38.9404 12.5732C38.68 12.7523 38.4806 12.9761 38.3423 13.2446C38.2039 13.5132 38.1348 13.8143 38.1348 14.1479Z" fill="white"/>
</svg>
